<svg width="44" height="44" viewBox="0 0 44 44" fill="none" xmlns="http://www.w3.org/2000/svg">
<rect width="44" height="44" rx="8" fill="white"/>
<rect x="0.5" y="0.5" width="43" height="43" rx="7.5" stroke="#163152" stroke-opacity="0.3"/>
<path fill-rule="evenodd" clip-rule="evenodd" d="M31.8423 31.3162C31.584 31.8124 31.0711 32.1236 30.5117 32.1236H13.457C12.8825 32.1236 12.3584 31.7954 12.1075 31.2785C11.8567 30.7616 11.9232 30.1468 12.2787 29.6954L13.457 30.6236H30.5117L31.7404 29.7632C32.0613 30.2214 32.1005 30.8201 31.8423 31.3162ZM29.2955 29.1236C30.0202 29.9217 30.5117 30.6236 30.5117 30.6236C31.7404 29.7632 31.7406 29.7634 31.7404 29.7632L31.7377 29.7593L31.7329 29.7525L31.7175 29.7309C31.7047 29.7129 31.6868 29.6879 31.664 29.6566C31.6185 29.5941 31.5536 29.5061 31.4716 29.3981C31.308 29.1828 31.0742 28.8853 30.7888 28.5505C30.2312 27.8964 29.4227 27.0355 28.5183 26.3828C27.5595 25.6909 26.4883 25.1639 25.3548 24.8157C27.3715 23.6621 28.7305 21.4897 28.7305 19C28.7305 15.3023 25.7329 12.3047 22.0352 12.3047C18.3374 12.3047 15.3399 15.3023 15.3399 19C15.3399 21.4894 16.6985 23.6615 18.7147 24.8152C17.784 25.101 16.8938 25.5078 16.072 26.0292C15.1042 26.6433 14.1416 27.5947 13.4697 28.318C13.1215 28.6928 12.8271 29.0331 12.6192 29.2803C12.515 29.4042 12.4318 29.5054 12.3738 29.5769C12.3448 29.6126 12.3221 29.641 12.3061 29.661L12.2871 29.6848L12.2816 29.6918L12.2798 29.694L12.2787 29.6954C12.2786 29.6956 12.2787 29.6954 13.457 30.6236C13.457 30.6236 14.0092 29.9227 14.7713 29.1236C15.3947 28.47 16.1585 27.7508 16.8756 27.2958C18.4695 26.2844 20.375 25.7682 22.3125 25.8228C24.25 25.8774 26.1174 26.5 27.6405 27.5991C28.2439 28.0346 28.82 28.5999 29.2955 29.1236ZM27.2305 19C27.2305 21.8693 24.9045 24.1953 22.0352 24.1953C19.1659 24.1953 16.8399 21.8693 16.8399 19C16.8399 16.1307 19.1659 13.8047 22.0352 13.8047C24.9045 13.8047 27.2305 16.1307 27.2305 19Z" fill="#163152"/>
<path opacity="0.2" fill-rule="evenodd" clip-rule="evenodd" d="M22.0352 24.1953C24.9044 24.1953 27.2305 21.8693 27.2305 19C27.2305 16.1307 24.9044 13.8047 22.0352 13.8047C19.1659 13.8047 16.8398 16.1307 16.8398 19C16.8398 21.8693 19.1659 24.1953 22.0352 24.1953ZM30.5117 30.6236C30.5117 30.6236 29.1635 28.6983 27.6404 27.5991C26.1174 26.5 24.25 25.8774 22.3125 25.8228C20.375 25.7682 18.4695 26.2844 16.8756 27.2958C15.2818 28.3071 13.457 30.6236 13.457 30.6236H30.5117Z" fill="#163152"/>
</svg>
